<?xml version="1.0" encoding="UTF-8" standalone="no"?>
<svg
   height="24"
   viewBox="0 -960 960 960"
   width="24"
   version="1.1"
   id="svg4"
   xmlns="http://www.w3.org/2000/svg"
   xmlns:svg="http://www.w3.org/2000/svg">

  <path
     d="m 424,-296 -170,-170 56,-56 114,114 400,-401 56,56 z"
     id="path391"
     style="fill:#1b7643;fill-opacity:1" />
  <path
     d="M 760,-160 V -280 H 640 v -80 h 120 v -120 h 80 v 120 h 120 v 80 H 840 v 120 z"
     id="path389"
     style="fill:#0d53fc;fill-opacity:1" />
  <path
     d="M 480,-80 Q 397,-80 324,-111.5 251,-143 197,-197 143,-251 111.5,-324 80,-397 80,-480 q 0,-83 31.5,-156 31.5,-73 85.5,-127 54,-54 127,-85.5 73,-31.5 156,-31.5 65,0 123,19 58,19 107,53 l -58,59 q -38,-24 -81,-37.5 -43,-13.5 -91,-13.5 -133,0 -226.5,93.5 Q 160,-613 160,-480 q 0,133 93.5,226.5 93.5,93.5 226.5,93.5 32,0 62,-6 30,-6 58,-17 l 60,61 q -41,20 -86,31 -45,11 -94,11 z"
     id="path2"
     style="fill:#fdb60d;fill-opacity:1" />
</svg>
